   <svg
          width="16"
          height="16"
          viewBox="0 0 16 16"
          fill="none"
          xmlns="http://www.w3.org/2000/svg"
        >
          <path
            d="M8 14.6663C8 14.6663 13 10.6663 13 6.33301C13 3.57157 10.7614 1.33301 8 1.33301C5.23857 1.33301 3 3.57157 3 6.33301C3 10.6663 8 14.6663 8 14.6663Z"
            fill="#007AFF"
          />
          <path
            fillRule="evenodd"
            clipRule="evenodd"
            d="M2.5 6.33301C2.5 3.29543 4.96242 0.833008 8 0.833008C11.0376 0.833008 13.5 3.29543 13.5 6.33301C13.5 8.67687 12.1577 10.8741 10.8884 12.4396C10.246 13.2318 9.60492 13.8835 9.12456 14.3371C8.88407 14.5643 8.68307 14.7425 8.54128 14.8647C8.47036 14.9259 8.41419 14.973 8.37523 15.0053C8.35575 15.0215 8.34057 15.0339 8.32998 15.0425L8.3176 15.0526L8.31407 15.0554L8.31298 15.0563L8.31261 15.0566C8.31247 15.0567 8.31235 15.0568 8 14.6663C7.68765 15.0568 7.68753 15.0567 7.68739 15.0566L7.68702 15.0563L7.68593 15.0554L7.6824 15.0526L7.67002 15.0425C7.65943 15.0339 7.64425 15.0215 7.62477 15.0053C7.58581 14.973 7.52964 14.9259 7.45872 14.8647C7.31693 14.7425 7.11593 14.5643 6.87544 14.3371C6.39508 13.8835 5.75396 13.2318 5.11162 12.4396C3.84231 10.8741 2.5 8.67687 2.5 6.33301ZM8 14.6663L7.68765 15.0568C7.87026 15.2029 8.12974 15.2029 8.31235 15.0568L8 14.6663ZM8 14.01C8.11918 13.9051 8.26783 13.7708 8.43794 13.6101C8.89508 13.1784 9.50396 12.5592 10.1116 11.8098C11.3423 10.2919 12.5 8.32248 12.5 6.33301C12.5 3.84772 10.4853 1.83301 8 1.83301C5.51471 1.83301 3.5 3.84772 3.5 6.33301C3.5 8.32248 4.65769 10.2919 5.88838 11.8098C6.49604 12.5592 7.10492 13.1784 7.56206 13.6101C7.73217 13.7708 7.88081 13.9051 8 14.01Z"
            fill="#007AFF"
          />
          <path
            d="M8 8.33301C9.10457 8.33301 10 7.43757 10 6.33301C10 5.22844 9.10457 4.33301 8 4.33301C6.89543 4.33301 6 5.22844 6 6.33301C6 7.43757 6.89543 8.33301 8 8.33301Z"
            fill="#FFFBFF"
          />
          <path
            fillRule="evenodd"
            clipRule="evenodd"
            d="M5.5 6.33301C5.5 4.9523 6.61929 3.83301 8 3.83301C9.38071 3.83301 10.5 4.9523 10.5 6.33301C10.5 7.71372 9.38071 8.83301 8 8.83301C6.61929 8.83301 5.5 7.71372 5.5 6.33301ZM8 4.83301C7.17158 4.83301 6.5 5.50458 6.5 6.33301C6.5 7.16143 7.17158 7.83301 8 7.83301C8.82842 7.83301 9.5 7.16143 9.5 6.33301C9.5 5.50458 8.82842 4.83301 8 4.83301Z"
            fill="#FFFBFF"
          />
        </svg>