   <svg
            width="16"
            height="16"
            viewBox="0 0 16 16"
            fill="none"
            xmlns="http://www.w3.org/2000/svg"
          >
            <path
              d="M8 14.6673C8 14.6673 13 10.6673 13 6.33398C13 3.57255 10.7614 1.33398 8 1.33398C5.23857 1.33398 3 3.57255 3 6.33398C3 10.6673 8 14.6673 8 14.6673Z"
              fill="#C7C7CC"
            />
            <path
              fillRule="evenodd"
              clipRule="evenodd"
              d="M2.5 6.33398C2.5 3.29641 4.96242 0.833984 8 0.833984C11.0376 0.833984 13.5 3.29641 13.5 6.33398C13.5 8.67784 12.1577 10.8751 10.8884 12.4406C10.246 13.2328 9.60492 13.8844 9.12456 14.3381C8.88407 14.5652 8.68307 14.7435 8.54128 14.8657C8.47036 14.9268 8.41419 14.974 8.37523 15.0063C8.35575 15.0224 8.34057 15.0349 8.32998 15.0435L8.3176 15.0535L8.31407 15.0564L8.31298 15.0572L8.31261 15.0575C8.31247 15.0577 8.31235 15.0578 8 14.6673C7.68765 15.0578 7.68753 15.0577 7.68739 15.0575L7.68702 15.0572L7.68593 15.0564L7.6824 15.0535L7.67002 15.0435C7.65943 15.0349 7.64425 15.0224 7.62477 15.0063C7.58581 14.974 7.52964 14.9268 7.45872 14.8657C7.31693 14.7435 7.11593 14.5652 6.87544 14.3381C6.39508 13.8844 5.75396 13.2328 5.11162 12.4406C3.84231 10.8751 2.5 8.67784 2.5 6.33398ZM8 14.6673L7.68765 15.0578C7.87026 15.2038 8.12974 15.2038 8.31235 15.0578L8 14.6673ZM8 14.011C8.11918 13.906 8.26783 13.7718 8.43794 13.6111C8.89508 13.1794 9.50396 12.5602 10.1116 11.8108C11.3423 10.2929 12.5 8.32346 12.5 6.33398C12.5 3.84869 10.4853 1.83398 8 1.83398C5.51471 1.83398 3.5 3.84869 3.5 6.33398C3.5 8.32346 4.65769 10.2929 5.88838 11.8108C6.49604 12.5602 7.10492 13.1794 7.56206 13.6111C7.73217 13.7718 7.88081 13.906 8 14.011Z"
              fill="#C7C7CC"
            />
            <path
              d="M8 8.33398C9.10457 8.33398 10 7.43855 10 6.33398C10 5.22942 9.10457 4.33398 8 4.33398C6.89543 4.33398 6 5.22942 6 6.33398C6 7.43855 6.89543 8.33398 8 8.33398Z"
              fill="#FFFBFF"
            />
            <path
              fillRule="evenodd"
              clipRule="evenodd"
              d="M5.5 6.33398C5.5 4.95328 6.61929 3.83398 8 3.83398C9.38071 3.83398 10.5 4.95328 10.5 6.33398C10.5 7.71469 9.38071 8.83398 8 8.83398C6.61929 8.83398 5.5 7.71469 5.5 6.33398ZM8 4.83398C7.17158 4.83398 6.5 5.50556 6.5 6.33398C6.5 7.16241 7.17158 7.83398 8 7.83398C8.82842 7.83398 9.5 7.16241 9.5 6.33398C9.5 5.50556 8.82842 4.83398 8 4.83398Z"
              fill="#FFFBFF"
            />
          </svg>