<svg
                width="19"
                height="18"
                viewBox="0 0 19 18"
                fill="none"
                xmlns="http://www.w3.org/2000/svg"
              >
                <path
                  d="M6.375 3C4.09683 3 2.25 4.84684 2.25 7.125C2.25 11.25 7.125 15 9.75 15.8723C12.375 15 17.25 11.25 17.25 7.125C17.25 4.84684 15.4032 3 13.125 3C11.7299 3 10.4965 3.69259 9.75 4.75268C9.00349 3.69259 7.77011 3 6.375 3Z"
                  fill="#FF2D55"
                />
                <path
                  fillRule="evenodd"
                  clipRule="evenodd"
                  d="M1.6875 7.125C1.6875 4.53618 3.78617 2.4375 6.375 2.4375C7.70079 2.4375 8.89792 2.98828 9.75 3.87203C10.6021 2.98828 11.7992 2.4375 13.125 2.4375C15.7138 2.4375 17.8125 4.53618 17.8125 7.125C17.8125 9.40357 16.4751 11.5075 14.8841 13.1142C13.2876 14.7265 11.3393 15.9369 9.92739 16.4061C9.81223 16.4444 9.68777 16.4444 9.57261 16.4061C8.16068 15.9369 6.21241 14.7265 4.61593 13.1142C3.02492 11.5075 1.6875 9.40357 1.6875 7.125ZM6.375 3.5625C4.40749 3.5625 2.8125 5.1575 2.8125 7.125C2.8125 8.97144 3.91258 10.805 5.41532 12.3226C6.84122 13.7626 8.54324 14.8295 9.75 15.2762C10.9568 14.8295 12.6588 13.7626 14.0847 12.3226C15.5874 10.805 16.6875 8.97144 16.6875 7.125C16.6875 5.1575 15.0925 3.5625 13.125 3.5625C11.9206 3.5625 10.8556 4.15966 10.2099 5.07654C10.1045 5.22616 9.93299 5.31518 9.75 5.31518C9.56701 5.31518 9.39545 5.22616 9.29009 5.07654C8.64442 4.15966 7.57941 3.5625 6.375 3.5625Z"
                  fill="#FF2D55"
                />
              </svg>