 <svg
              width="24"
              height="24"
              viewBox="0 0 24 24"
              fill="none"
              xmlns="http://www.w3.org/2000/svg"
            >
              <path
                d="M9.5 12C11.706 12 13.5 10.206 13.5 8C13.5 5.794 11.706 4 9.5 4C7.294 4 5.5 5.794 5.5 8C5.5 10.206 7.294 12 9.5 12ZM11 13H8C4.691 13 2 15.691 2 19V20H17V19C17 15.691 14.309 13 11 13Z"
                fill="black"
              />
              <path
                d="M16.6036 11.048C17.2126 10.0101 17.4757 8.80528 17.3546 7.60797C17.1756 5.82397 16.1796 4.24697 14.5516 3.16797L13.4466 4.83397C14.5656 5.57597 15.2466 6.63297 15.3646 7.80797C15.419 8.35407 15.351 8.90543 15.1656 9.42195C14.9801 9.93847 14.6819 10.4072 14.2926 10.794L13.1006 11.986L14.7186 12.461C18.9506 13.701 18.9996 17.957 18.9996 18H20.9996C20.9996 16.211 20.0436 12.715 16.6036 11.048Z"
                fill="black"
              />
            </svg>