   <svg
              width="16"
              height="16"
              viewBox="0 0 16 16"
              fill="none"
              xmlns="http://www.w3.org/2000/svg"
            >
              <path
                d="M6.33398 8.00033C7.80465 8.00033 9.00065 6.80433 9.00065 5.33366C9.00065 3.86299 7.80465 2.66699 6.33398 2.66699C4.86332 2.66699 3.66732 3.86299 3.66732 5.33366C3.66732 6.80433 4.86332 8.00033 6.33398 8.00033ZM7.33398 8.66699H5.33398C3.12798 8.66699 1.33398 10.461 1.33398 12.667V13.3337H11.334V12.667C11.334 10.461 9.53998 8.66699 7.33398 8.66699Z"
                fill="#C7C7CC"
              />
              <path
                d="M11.0697 7.36564C11.4757 6.67369 11.6511 5.87051 11.5704 5.0723C11.451 3.88297 10.787 2.83164 9.70171 2.1123L8.96504 3.22297C9.71104 3.71764 10.165 4.4223 10.2437 5.20564C10.28 5.5697 10.2347 5.93728 10.111 6.28163C9.98741 6.62597 9.78859 6.93844 9.52904 7.1963L8.73438 7.99097L9.81304 8.30764C12.6344 9.1343 12.667 11.9716 12.667 12.0003H14.0004C14.0004 10.8076 13.363 8.47697 11.0697 7.36564Z"
                fill="#C7C7CC"
              />
            </svg>