  <svg
            width="16"
            height="17"
            viewBox="0 0 16 17"
            fill="none"
            xmlns="http://www.w3.org/2000/svg"
          >
            <path
              d="M6.33398 8.49935C7.80465 8.49935 9.00065 7.30335 9.00065 5.83268C9.00065 4.36202 7.80465 3.16602 6.33398 3.16602C4.86332 3.16602 3.66732 4.36202 3.66732 5.83268C3.66732 7.30335 4.86332 8.49935 6.33398 8.49935ZM7.33398 9.16602H5.33398C3.12798 9.16602 1.33398 10.96 1.33398 13.166V13.8327H11.334V13.166C11.334 10.96 9.53998 9.16602 7.33398 9.16602Z"
              fill="#C7C7CC"
            />
            <path
              d="M11.0697 7.86466C11.4757 7.17272 11.6511 6.36953 11.5704 5.57133C11.451 4.38199 10.787 3.33066 9.70171 2.61133L8.96504 3.72199C9.71104 4.21666 10.165 4.92133 10.2437 5.70466C10.28 6.06873 10.2347 6.4363 10.111 6.78065C9.98741 7.125 9.78859 7.43747 9.52904 7.69533L8.73438 8.48999L9.81304 8.80666C12.6344 9.63333 12.667 12.4707 12.667 12.4993H14.0004C14.0004 11.3067 13.363 8.97599 11.0697 7.86466Z"
              fill="#C7C7CC"
            />
          </svg>