 <svg
                width="24"
                height="24"
                viewBox="0 0 24 24"
                fill="none"
                xmlns="http://www.w3.org/2000/svg"
              >
                <rect
                  x="0.5"
                  y="0.5"
                  width="23"
                  height="23"
                  rx="11.5"
                  fill="white"
                />
                <path
                  d="M5.56286 14.1813L6.89619 16.488C6.98471 16.641 7.13037 16.7526 7.30114 16.7982C7.47192 16.8438 7.65382 16.8198 7.80686 16.7313L8.73752 16.194C9.12419 16.4987 9.55153 16.7487 10.0009 16.9353V18.0007C10.0009 18.1775 10.0711 18.347 10.1961 18.4721C10.3211 18.5971 10.4907 18.6673 10.6675 18.6673H13.3342C13.511 18.6673 13.6806 18.5971 13.8056 18.4721C13.9306 18.347 14.0009 18.1775 14.0009 18.0007V16.9353C14.4537 16.7468 14.8787 16.4974 15.2642 16.194L16.1949 16.7313C16.5129 16.9147 16.9222 16.8047 17.1055 16.488L18.4389 14.1813C18.5266 14.0281 18.5503 13.8465 18.5047 13.6759C18.4591 13.5053 18.348 13.3597 18.1955 13.2707L17.2809 12.742C17.3523 12.2503 17.3519 11.7509 17.2795 11.2593L18.1942 10.7307C18.5115 10.5473 18.6215 10.1373 18.4375 9.81998L17.1042 7.51332C17.0157 7.36032 16.87 7.24873 16.6992 7.2031C16.5285 7.15747 16.3466 7.18153 16.1935 7.26998L15.2629 7.80732C14.8779 7.50357 14.453 7.25413 14.0002 7.06598V6.00065C14.0002 5.82384 13.93 5.65427 13.8049 5.52925C13.6799 5.40422 13.5103 5.33398 13.3335 5.33398H10.6669C10.49 5.33398 10.3205 5.40422 10.1955 5.52925C10.0704 5.65427 10.0002 5.82384 10.0002 6.00065V7.06598C9.54734 7.25452 9.12232 7.50393 8.73686 7.80732L7.80686 7.26998C7.7311 7.2261 7.64744 7.19758 7.56065 7.18605C7.47386 7.17453 7.38565 7.18023 7.30107 7.20283C7.21649 7.22543 7.13719 7.26449 7.06772 7.31777C6.99825 7.37104 6.93996 7.43749 6.89619 7.51332L5.56286 9.81998C5.47512 9.97319 5.45146 10.1549 5.49703 10.3254C5.54261 10.496 5.65373 10.6416 5.80619 10.7307L6.72086 11.2593C6.64895 11.7509 6.64895 12.2504 6.72086 12.742L5.80619 13.2707C5.48886 13.454 5.37886 13.864 5.56286 14.1813ZM12.0002 9.33398C13.4709 9.33398 14.6669 10.53 14.6669 12.0007C14.6669 13.4713 13.4709 14.6673 12.0002 14.6673C10.5295 14.6673 9.33352 13.4713 9.33352 12.0007C9.33352 10.53 10.5295 9.33398 12.0002 9.33398Z"
                  fill="#8E8E93"
                />
                <rect
                  x="0.5"
                  y="0.5"
                  width="23"
                  height="23"
                  rx="11.5"
                  stroke="#C7C7CC"
                />
              </svg>